<?xml version="1.0" encoding="utf-8"?>
<!-- Generator: Adobe Illustrator 16.0.0, SVG Export Plug-In . SVG Version: 6.00 Build 0)  -->
<!DOCTYPE svg PUBLIC "-//W3C//DTD SVG 1.1//EN" "http://www.w3.org/Graphics/SVG/1.1/DTD/svg11.dtd">
<svg version="1.1" id="Layer_1" xmlns="http://www.w3.org/2000/svg" xmlns:xlink="http://www.w3.org/1999/xlink" x="0px" y="0px"
	 width="60px" height="50px" viewBox="0 0 60 50" enable-background="new 0 0 60 50" xml:space="preserve">
<g>
	<path fill="#FAF1D9" d="M52.063,18.029h-1.301v-3.186c-0.852,0.315-2.22,1.357-2.888,1.562c-1.147,0.332-1.354,1.088-1.354,1.088
		s0.707-0.366,1.766-0.916c0.832-0.447,1.909-1.012,2.9-1.707c1.396-1.252,2.181-2.629,2.181-4.078
		c0-5.694-11.945-10.31-26.684-10.31C11.947,0.484,0,5.1,0,10.794c0,1.551,0.913,3.017,2.5,4.337v10.255
		c0,13.325,10.805,24.13,24.132,24.13c10.322,0,19.105-6.495,22.554-15.609h2.877c4.382,0,7.937-3.555,7.937-7.938
		S56.445,18.029,52.063,18.029z M52.37,29.003h-1.908c0.179-1.185,0.301-2.386,0.301-3.617v-2.452h1.607
		c1.676,0,3.035,1.359,3.035,3.034C55.405,27.645,54.046,29.003,52.37,29.003z"/>
	<ellipse fill="#7E6447" cx="26.684" cy="9.594" rx="18.375" ry="4.744"/>
</g>
</svg>
