<?xml version="1.0" encoding="utf-8"?>
<!-- Generator: Adobe Illustrator 16.0.0, SVG Export Plug-In . SVG Version: 6.00 Build 0)  -->
<!DOCTYPE svg PUBLIC "-//W3C//DTD SVG 1.1//EN" "http://www.w3.org/Graphics/SVG/1.1/DTD/svg11.dtd">
<svg version="1.1" id="Layer_1" xmlns="http://www.w3.org/2000/svg" xmlns:xlink="http://www.w3.org/1999/xlink" x="0px" y="0px"
	 width="234px" height="146px" viewBox="0 0 234 146" enable-background="new 0 0 234 146" xml:space="preserve">
<g>
	<g>
		<path fill="#FAF1D9" d="M45.587,42.03v15.059h-3.729c-0.095-2.199-0.384-4.159-0.86-5.879c-0.479-1.435-1.245-2.795-2.294-4.089
			c-1.051-1.291-2.581-1.935-4.59-1.935h-16.06v46.177h5.591c4.97,0,7.791-0.381,8.463-1.148c0.667-0.763,1.146-1.576,1.434-2.437
			c0.381-1.051,0.572-2.294,0.572-3.729h3.299v17.782h-3.299c0-1.435-0.19-2.629-0.572-3.585c-0.288-0.955-0.768-1.815-1.434-2.583
			c-0.672-0.763-3.493-1.146-8.463-1.146h-5.591v42.303c0,1.341,0.19,2.319,0.571,2.94c0.381,0.623,0.768,0.982,1.149,1.074
			c0.575,0.29,1.195,0.29,1.864,0v3.729H4.285v-3.729c0.766,0.29,1.34,0.29,1.721,0c0.479-0.092,0.958-0.451,1.438-1.074
			c0.477-0.621,0.716-1.6,0.716-2.94V49.775c0-1.435-0.239-2.461-0.716-3.084c-0.479-0.621-0.958-1.026-1.438-1.217
			c-0.381-0.19-0.955-0.19-1.721,0V42.03H45.587z"/>
		<path fill="#FAF1D9" d="M94.489,141.697c0.664,0,1.192-0.094,1.575-0.288c0.381-0.188,0.765-0.38,1.146-0.574v3.155
			c-0.571,0.48-1.291,0.934-2.15,1.364c-0.86,0.43-2.009,0.646-3.44,0.646c-1.245,0-2.489-0.239-3.73-0.72
			c-1.244-0.479-2.39-1.242-3.441-2.295c-1.057-1.051-1.935-2.411-2.654-4.085c-0.719-1.672-1.125-3.75-1.219-6.239v-23.519
			c0-2.102-0.286-3.801-0.861-5.091c-0.574-1.29-1.313-2.27-2.221-2.938c-0.909-0.668-1.893-1.121-2.942-1.36
			c-1.051-0.242-2.006-0.407-2.866-0.505h-5.879v37.572c0,1.341,0.189,2.319,0.574,2.94c0.382,0.623,0.762,0.982,1.146,1.074
			c0.575,0.29,1.196,0.29,1.865,0v3.729H52.183v-3.729c0.669,0.29,1.241,0.29,1.72,0c0.479-0.092,0.934-0.451,1.364-1.074
			c0.429-0.621,0.646-1.6,0.646-2.94V49.63c0-1.336-0.216-2.341-0.646-3.011c-0.43-0.667-0.885-1.097-1.364-1.29
			c-0.479-0.096-1.051-0.096-1.72,0v-3.443H72.69c3.533,0,6.666,0.599,9.395,1.793c2.722,1.198,4.992,2.75,6.807,4.66
			c1.819,1.914,3.18,4.114,4.089,6.599c0.906,2.485,1.361,5.066,1.361,7.741v15.634c0,3.729-0.956,7.362-2.867,10.898
			c-1.914,3.536-4.875,6.166-8.894,7.886c5.45,2.199,8.177,6.407,8.177,12.619v22.944c0,2.489,0.167,4.614,0.501,6.384
			C91.595,140.813,92.67,141.697,94.489,141.697z M65.807,45.474v49.76h7.744c0.86,0,1.886-0.263,3.084-0.786
			c1.192-0.525,2.341-1.341,3.441-2.438c1.097-1.098,2.052-2.532,2.87-4.306c0.811-1.767,1.216-3.892,1.216-6.379V59.525
			c0-2.387-0.406-4.466-1.216-6.236c-0.817-1.77-1.773-3.229-2.87-4.375c-1.1-1.148-2.249-2.008-3.441-2.58
			c-1.198-0.575-2.224-0.86-3.084-0.86H65.807z"/>
		<path fill="#FAF1D9" d="M119.869,136.82c0,1.341,0.215,2.319,0.646,2.94c0.43,0.623,0.834,0.982,1.215,1.074
			c0.479,0.29,1.1,0.29,1.865,0v3.729h-17.354v-3.729c0.765,0.29,1.438,0.29,2.01,0c0.288-0.092,0.644-0.451,1.074-1.074
			c0.431-0.621,0.645-1.6,0.645-2.94V49.775c0-1.435-0.214-2.461-0.645-3.084c-0.43-0.621-0.787-1.026-1.074-1.217
			c-0.572-0.19-1.245-0.19-2.01,0V42.03h17.354v3.443c-0.766-0.19-1.387-0.19-1.865,0c-0.381,0.191-0.785,0.596-1.215,1.217
			c-0.432,0.624-0.646,1.649-0.646,3.084V136.82z"/>
		<path fill="#FAF1D9" d="M177.373,63.11v60.661c0,2.581-0.459,5.115-1.361,7.601c-0.912,2.488-2.273,4.709-4.09,6.669
			c-1.814,1.96-4.088,3.538-6.809,4.731c-2.729,1.197-5.904,1.792-9.539,1.792c-0.096,0-0.5,0-1.221,0
			c-0.715,0-1.604,0.023-2.654,0.072c-1.049,0.049-2.221,0.074-3.51,0.074c-1.291,0-2.609,0-3.945,0h-10.613v-3.729
			c0.67,0.192,1.295,0.192,1.869,0c0.475-0.191,0.904-0.574,1.289-1.15c0.381-0.572,0.572-1.526,0.572-2.865V50.06
			c0-1.336-0.191-2.316-0.572-2.939c-0.385-0.621-0.814-1.026-1.289-1.217c-0.574-0.19-1.199-0.19-1.869,0v-3.585h21.943
			c3.635,0,6.811,0.596,9.539,1.791c2.721,1.199,4.994,2.774,6.809,4.735c1.816,1.959,3.178,4.18,4.09,6.666
			C176.914,57.998,177.373,60.53,177.373,63.11z M147.258,46.045v94.65h8.602c1.625-0.191,3.299-0.646,5.02-1.364
			c1.721-0.717,3.201-1.887,4.447-3.516c1.527-2.197,2.342-5.21,2.438-9.034V59.955c0-1.721-0.24-3.392-0.717-5.017
			c-0.668-2.009-1.602-3.609-2.795-4.805c-1.197-1.195-2.512-2.101-3.945-2.725c-1.436-0.62-2.893-1.004-4.373-1.148
			c-1.484-0.142-2.795-0.216-3.945-0.216H147.258z"/>
		<path fill="#FAF1D9" d="M227.705,136.966c0.191,1.339,0.596,2.293,1.223,2.865c0.621,0.576,1.312,0.959,2.076,1.15
			c0.766,0.192,1.627,0.192,2.582,0v3.582h-21.08v-3.582c0.861,0.192,1.625,0.192,2.295,0c0.477-0.191,0.906-0.574,1.293-1.15
			c0.381-0.572,0.475-1.526,0.283-2.865c0-0.192-0.264-1.888-0.787-5.091c-0.529-3.204-1.172-7.435-1.936-12.693h-18.357
			c-0.955,5.259-1.695,9.489-2.225,12.693c-0.521,3.203-0.785,4.898-0.785,5.091c-0.289,1.339-0.264,2.293,0.072,2.865
			c0.334,0.576,0.738,0.959,1.217,1.15c0.576,0.192,1.34,0.192,2.295,0v3.582h-13.766v-3.582c0.861,0.192,1.721,0.192,2.58,0
			c0.764-0.191,1.457-0.574,2.076-1.15c0.625-0.572,1.08-1.526,1.365-2.865c0-0.097,0.24-1.506,0.719-4.23
			c0.477-2.726,1.121-6.31,1.936-10.755c0.812-4.447,1.744-9.49,2.795-15.128c1.051-5.643,2.102-11.427,3.156-17.354l8.604-47.038
			h7.314c2.771,17.495,5.256,33.128,7.455,46.893c0.957,5.929,1.865,11.713,2.729,17.353c0.859,5.645,1.646,10.685,2.365,15.13
			c0.715,4.445,1.312,8.056,1.791,10.825C227.465,135.435,227.705,136.869,227.705,136.966z M195.871,115.452h17.354
			c-0.574-3.917-1.219-8.123-1.936-12.619c-0.717-4.491-1.438-9.011-2.152-13.551c-0.715-4.541-1.436-8.963-2.15-13.266
			c-0.717-4.303-1.361-8.268-1.939-11.902c-0.762,3.634-1.529,7.6-2.291,11.902c-0.768,4.303-1.555,8.725-2.365,13.266
			c-0.814,4.54-1.604,9.06-2.367,13.551C197.256,107.329,196.537,111.535,195.871,115.452z"/>
	</g>
	<g>
		<path fill="#FAF1D9" d="M110.528,5.014l0.304-0.04l5.889-2c0.058-0.092,0.071-0.191,0.046-0.298
			c-0.021-0.104-0.067-0.212-0.135-0.314c-0.067-0.104-0.15-0.202-0.249-0.298c-0.099-0.098-0.2-0.184-0.289-0.258
			c-0.092-0.077-0.175-0.139-0.246-0.188c-0.067-0.046-0.11-0.077-0.125-0.086l-5.351,3.053c-0.013,0.071-0.013,0.142,0.006,0.221
			C110.393,4.888,110.441,4.955,110.528,5.014z"/>
		<path fill="#FAF1D9" d="M118.287,14.285c-0.08-0.083-0.166-0.126-0.266-0.126c-0.063,0-0.112,0.016-0.15,0.04
			c-1.09,0.63-2.011,1.165-2.77,1.603c-0.755,0.437-1.376,0.8-1.865,1.091c-0.54,0.32-0.989,0.581-1.342,0.787
			c-0.36,0.206-0.661,0.307-0.913,0.307c-0.166,0-0.298-0.046-0.4-0.141c-0.104-0.095-0.184-0.228-0.246-0.394
			c-0.058-0.166-0.095-0.369-0.114-0.605c-0.016-0.239-0.027-0.501-0.027-0.792c0-0.341,0.006-0.707,0.021-1.091
			c0.013-0.39,0.019-0.799,0.019-1.229c0.645-0.218,1.253-0.482,1.825-0.798c0.574-0.313,1.072-0.654,1.5-1.017
			c0.423-0.369,0.761-0.734,1.007-1.109c0.245-0.375,0.369-0.731,0.369-1.075c0-0.553-0.167-0.961-0.492-1.229
			c-0.326-0.265-0.737-0.396-1.239-0.396c-0.488,0-0.985,0.083-1.504,0.249c-0.514,0.166-1.011,0.418-1.484,0.755
			c-0.47,0.338-0.903,0.763-1.3,1.282c-0.392,0.516-0.712,1.13-0.958,1.84l-0.167,0.838c-3.179,0.796-7.68,1.588-12.091,1.981
			c-7.956,0.707-13.578-0.021-15.753-1.966c0.099-0.344,0.188-0.651,0.289-1.01c0.778-0.449,1.577-0.906,2.396-1.368
			c0.821-0.46,1.623-0.94,2.403-1.435c0.777-0.491,1.518-1.004,2.217-1.533c0.701-0.531,1.313-1.087,1.834-1.671
			c0.522-0.583,0.934-1.195,1.245-1.836c0.307-0.643,0.46-1.325,0.46-2.041c0-0.267-0.067-0.528-0.208-0.786
			c-0.139-0.261-0.354-0.498-0.649-0.709C89.644,0.492,89.264,0.32,88.8,0.19C88.336,0.064,87.78,0,87.128,0
			c-0.655,0-1.29,0.108-1.91,0.326c-0.624,0.221-1.219,0.516-1.792,0.885c-0.574,0.369-1.115,0.801-1.625,1.299
			c-0.507,0.495-0.98,1.022-1.407,1.579c-0.43,0.556-0.813,1.133-1.157,1.726c-0.349,0.593-0.637,1.164-0.867,1.721
			c-0.135,0.312-0.264,0.663-0.384,1.05c-0.12,0.387-0.229,0.777-0.341,1.167c-0.11,0.394-0.206,0.778-0.294,1.153
			c-0.09,0.375-0.163,0.707-0.221,0.995c-0.006,0.04-0.006,0.055-0.016,0.092c-4.887,1.348-14.484,3.256-21.952,4.743
			c-3.225,0.639-6.171,1.226-8.383,1.695c-1.228,0.255-2.037,0.387-2.586,0.452c0.301-1.124,2.408-7.876,2.461-8.094
			c0.073-0.046,0.171-0.077,0.304-0.086c0.129-0.012,0.252-0.03,0.375-0.052c0.117-0.021,0.225-0.062,0.313-0.114
			c0.089-0.052,0.132-0.141,0.132-0.267c0-0.163-0.064-0.304-0.194-0.43c-0.128-0.126-0.307-0.233-0.534-0.32
			c-0.228-0.088-0.501-0.156-0.817-0.202c-0.313-0.047-0.654-0.068-1.016-0.068c-0.633,0-1.306,0.129-2.025,0.11
			c-1.487-0.027-2.725,0.317-3.778,0.836c-1.174,0.271-2.679,0.412-4.473,0.455c-12.5,0.319-18.791,4.506-19.728,5.059
			c-0.937,0.55-1.819,1.062-2.645,1.536c-0.823,0.476-1.597,0.873-2.316,1.195c-0.716,0.323-1.398,0.482-2.034,0.482
			c-0.562,0-1.017-0.181-1.37-0.55c-0.357-0.366-0.538-0.949-0.538-1.757c0-0.427,0.061-0.879,0.184-1.352
			c0.117-0.473,0.273-0.943,0.464-1.407c0.193-0.467,0.415-0.91,0.66-1.331c0.252-0.417,0.504-0.79,0.762-1.109
			c0.258-0.323,0.51-0.577,0.752-0.765c0.246-0.188,0.467-0.28,0.661-0.28c0.206,0,0.369,0.111,0.486,0.332
			c0.123,0.221,0.181,0.596,0.181,1.13c0,0.292,0.086,0.507,0.261,0.646c0.175,0.138,0.341,0.205,0.501,0.205
			c0.202,0,0.402-0.037,0.605-0.113c0.197-0.077,0.375-0.188,0.528-0.335c0.157-0.147,0.28-0.329,0.375-0.544
			c0.092-0.211,0.141-0.458,0.141-0.734c0-0.43-0.221-0.765-0.66-1.011c-0.439-0.246-1.103-0.365-1.991-0.365
			C9.6,9.585,9,9.683,8.42,9.886c-0.571,0.2-1.208,0.495-1.902,0.888c-0.694,0.387-1.493,0.87-2.386,1.441
			c-0.901,0.574-1.982,1.238-3.247,1.987c-0.169,0.098-0.292,0.221-0.363,0.356c-0.071,0.139-0.107,0.274-0.107,0.397
			c0,0.12,0.027,0.215,0.08,0.294c0.052,0.08,0.126,0.121,0.215,0.121c0.052,0,0.114-0.016,0.175-0.053l5.099-3.001
			c-0.322,0.239-0.621,0.531-0.9,0.872c-0.279,0.341-0.519,0.707-0.722,1.105c-0.203,0.397-0.359,0.812-0.473,1.245
			c-0.117,0.433-0.172,0.857-0.172,1.266c0,0.473,0.068,0.918,0.2,1.336c0.135,0.418,0.348,0.787,0.642,1.103
			c0.295,0.316,0.679,0.565,1.152,0.753c0.47,0.188,1.047,0.28,1.724,0.28c0.67,0,1.333-0.092,1.981-0.277
			c0.654-0.182,1.293-0.418,1.923-0.707c0.627-0.292,1.247-0.614,1.853-0.977c0.605-0.362,1.198-0.729,1.775-1.097
			c0.501-0.326,0.992-0.632,1.471-0.931c7.397-4.07,13.827-4.433,18.551-4.679c0.949-0.046,1.797-0.104,2.602-0.178
			c-1.576,1.395-2.384,3.063-2.516,3.588c-0.752,2.983,0.621,4.405,1.479,4.762c3.04,1.262,5.317-2.316,5.578-2.823
			c-0.071,0.207-0.132,0.424-0.175,0.648c-0.042,0.228-0.068,0.452-0.068,0.679c0,0.203,0.019,0.394,0.062,0.571
			c0.04,0.182,0.102,0.338,0.181,0.477c0.08,0.141,0.184,0.251,0.311,0.332c0.042,0.024,0.104,0.019,0.15,0.037
			c0.142,0.111,0.344,0.203,0.827,0.203c0.626,0,1.689-0.138,3.557-0.535c2.212-0.467,5.151-1.05,8.375-1.692
			c7.563-1.502,16.483-3.278,21.512-4.626c0,0-1.979,7.256-2.546,10.349c-0.316,1.958-0.701,4.239-0.707,6.774
			c0,0.629,0.034,1.281,0.144,1.951c0.135,0.682,0.178,1.33,0.692,2.163c0.15,0.196,0.408,0.482,0.847,0.528
			c0.24,0.015,0.479-0.062,0.492-0.08c0.205-0.074,0.181-0.096,0.286-0.147l0.869-0.532c0.532-0.417,1.105-0.784,1.585-1.263
			c1.014-0.894,1.818-1.991,2.448-3.139c0.669-1.14,1.047-2.391,1.363-3.588c0.547-2.436,0.456-4.798,0.038-6.736
			c-0.369-1.923-1.03-3.444-1.521-4.507c2.294,1.094,5.659,1.469,9.139,1.469c1.96,0,3.947-0.114,5.796-0.28
			c4.329-0.384,8.593-1.127,11.769-1.898c-0.046,0.258-0.08,0.528-0.114,0.802c-0.027,0.276-0.051,0.531-0.064,0.768
			c-0.013,0.243-0.021,0.412-0.021,0.522c0,0.676,0.043,1.247,0.129,1.717c0.085,0.467,0.208,0.845,0.374,1.137
			c0.167,0.292,0.366,0.5,0.603,0.629c0.236,0.132,0.513,0.2,0.823,0.2c0.467,0,1.008-0.145,1.635-0.421
			c0.624-0.283,1.305-0.643,2.04-1.084c0.738-0.442,1.521-0.931,2.35-1.475c0.826-0.541,1.684-1.072,2.568-1.597
			c0.198-0.117,0.333-0.237,0.409-0.363s0.113-0.24,0.113-0.347C118.4,14.475,118.363,14.371,118.287,14.285z M41.526,16.226
			c-0.267,0.357-0.562,0.707-0.884,1.054c-0.313,0.347-0.64,0.657-0.968,0.934c-0.325,0.273-0.648,0.494-0.967,0.661
			c-0.316,0.166-0.611,0.249-0.882,0.249c-0.458,0-0.79-0.141-0.989-0.424c-0.202-0.286-0.304-0.661-0.304-1.121
			c0-0.415,0.086-0.882,0.261-1.407c0.178-0.522,0.424-1.057,0.74-1.591c0.32-0.538,0.707-1.063,1.161-1.573
			c0.456-0.51,0.961-0.962,1.524-1.361c0.56-0.396,1.17-0.719,1.825-0.961c0.658-0.243,1.343-0.366,2.065-0.366L42.671,14.3
			c-0.088,0.252-0.236,0.547-0.439,0.885C42.03,15.525,41.793,15.87,41.526,16.226z M81.246,8.777
			c0.236-0.771,0.498-1.54,0.793-2.298c0.294-0.765,0.623-1.497,0.986-2.2c0.359-0.7,0.755-1.324,1.188-1.858
			c0.434-0.538,0.903-0.968,1.413-1.284c0.507-0.322,1.061-0.479,1.659-0.479c0.52,0,0.927,0.052,1.229,0.16
			c0.298,0.11,0.522,0.24,0.669,0.399c0.148,0.156,0.24,0.328,0.271,0.513c0.04,0.185,0.056,0.353,0.056,0.506
			c0,0.624-0.204,1.272-0.611,1.948c-0.409,0.676-0.996,1.376-1.764,2.105c-0.768,0.724-1.702,1.477-2.797,2.257
			c-1.097,0.78-2.335,1.582-3.714,2.399C80.803,10.273,81.013,9.545,81.246,8.777z M75.455,33.613
			c0.059,0.003,0.047-0.016,0.062-0.018c-0.059,0.024-0.12,0.055-0.086,0.03C75.295,33.671,75.373,33.598,75.455,33.613z
			 M81.67,25.906c-0.338,1.134-0.725,2.304-1.386,3.354c-0.624,1.063-1.404,2.064-2.363,2.857c-0.441,0.436-0.985,0.752-1.514,1.063
			l-0.83,0.384c-0.003,0-0.013,0.006-0.014,0.006c-0.215-0.765,0.042-2.172,0.178-3.259c0.341-2.316,0.789-4.5,1.253-6.353
			c0.897-3.711,1.594-6.177,1.594-6.177l0,0c0.016-0.046,0.024-0.083,0.04-0.129c0.246-0.826,0.501-1.699,0.765-2.62
			c0.055-0.197,0.124-0.43,0.181-0.636c0.141,0.23,0.296,0.488,0.493,0.82c0.485,0.971,1.244,2.38,1.621,4.258
			C82.088,21.326,82.216,23.593,81.67,25.906z M110.834,11.087c0.203-0.458,0.43-0.842,0.685-1.146
			c0.256-0.311,0.52-0.541,0.786-0.698c0.268-0.16,0.507-0.236,0.713-0.236c0.178,0,0.304,0.055,0.383,0.163
			c0.077,0.107,0.114,0.273,0.114,0.5c0,0.062-0.009,0.12-0.027,0.172c-0.042,0.19-0.159,0.412-0.341,0.658
			c-0.184,0.246-0.417,0.5-0.703,0.756c-0.197,0.181-0.437,0.356-0.669,0.537l-0.022-0.04c-0.276,0.16-0.715,0.335-1.225,0.516
			C110.607,11.849,110.685,11.431,110.834,11.087z"/>
	</g>
</g>
</svg>
