<?xml version="1.0" encoding="utf-8"?>
<!-- Generator: Adobe Illustrator 16.0.0, SVG Export Plug-In . SVG Version: 6.00 Build 0)  -->
<!DOCTYPE svg PUBLIC "-//W3C//DTD SVG 1.1//EN" "http://www.w3.org/Graphics/SVG/1.1/DTD/svg11.dtd">
<svg version="1.1" id="Layer_1" xmlns="http://www.w3.org/2000/svg" xmlns:xlink="http://www.w3.org/1999/xlink" x="0px" y="0px"
	 width="46px" height="50px" viewBox="0 0 46 50" enable-background="new 0 0 46 50" xml:space="preserve">
<path fill="#FAF1D9" d="M39.415,25.707h-0.984v-1.401c-0.645,0.239-1.258,0.422-1.764,0.577c-0.868,0.251-1.447,0.418-1.447,0.418
	s0.535-0.277,1.337-0.693c0.63-0.338,1.445-0.766,2.195-1.292c1.057-0.948,1.651-1.99,1.651-3.087c0-4.311-9.044-7.805-20.202-7.805
	C9.044,12.424,0,15.918,0,20.229c0,1.174,0.691,2.284,1.893,3.283v7.764c0,10.088,8.18,18.268,18.27,18.268
	c7.815,0,14.464-4.917,17.075-11.817h2.178c3.317,0,6.009-2.69,6.009-6.01C45.424,28.398,42.732,25.707,39.415,25.707z
	 M39.647,34.015h-1.444c0.135-0.896,0.228-1.806,0.228-2.738V29.42h1.217c1.269,0,2.298,1.029,2.298,2.297
	C41.945,32.986,40.916,34.015,39.647,34.015z"/>
<ellipse fill="#7D6346" cx="20.202" cy="19.321" rx="13.911" ry="3.592"/>
</svg>
