<?xml version="1.0" encoding="utf-8"?>
<!-- Generator: Adobe Illustrator 16.0.0, SVG Export Plug-In . SVG Version: 6.00 Build 0)  -->
<!DOCTYPE svg PUBLIC "-//W3C//DTD SVG 1.1//EN" "http://www.w3.org/Graphics/SVG/1.1/DTD/svg11.dtd">
<svg version="1.1" id="Layer_1" xmlns="http://www.w3.org/2000/svg" xmlns:xlink="http://www.w3.org/1999/xlink" x="0px" y="0px"
	 width="14px" height="35px" viewBox="0 0 14 35" enable-background="new 0 0 14 35" xml:space="preserve">
<path fill="#FAF1D9" d="M7.355,30.851C7.547,31.01,7.765,31.1,7.996,31.1H8c0.627,0,1.138-0.656,1.138-1.473
	c0-0.148-0.018-0.284-0.048-0.42c-0.685-3.898-0.357-7.038,0.967-9.334c1.548-2.674,2.231-6.108,1.831-9.18
	c-0.354-2.726-1.478-4.987-3.251-6.545C8.253,3.813,7.73,3.819,7.351,4.159C6.963,4.505,6.784,5.111,6.889,5.712
	c0.736,4.097,0.069,6.692-1.613,10.625c-1.042,2.431-1.464,5.163-1.199,7.69C4.383,26.884,5.516,29.241,7.355,30.851z"/>
</svg>
